# xmcd CD database file
#
# Track frame offsets:
#	150
#	21280
#	51875
#	72660
#	95922
#	116338
#	131491
#	149735
#	171821
#
# Disc length: 2610 seconds
#
# Revision: 0
# Processed by: cddbd v1.5.2PL0 Copyright (c) Steve Scherf et al.
# Submitted via: jetAudio 7
#
DISCID=8a0a3009
DTITLE=吳莉  - Butterfly and Blue
DYEAR=1900
DGENRE=장르 없음
TTITLE0=Butterfly and Blue
TTITLE1=The Town far away
TTITLE2=Soft memory
TTITLE3=Cloud color
TTITLE4=Far fog
TTITLE5=Role
TTITLE6=Half blue half love
TTITLE7=Glass Dragonfly
TTITLE8=Circle
EXTD=
EXTT0=
EXTT1=
EXTT2=
EXTT3=
EXTT4=
EXTT5=
EXTT6=
EXTT7=
EXTT8=
PLAYORDER=
